<?xml version="1.0" encoding="UTF-8" standalone="no"?>
<!-- Created with Inkscape (http://www.inkscape.org/) -->

<svg
   width="50.000553"
   height="4.3869939"
   viewBox="0 0 13.229313 1.1607255"
   version="1.1"
   id="svg2826"
   inkscape:version="1.1.1 (3bf5ae0d25, 2021-09-20)"
   sodipodi:docname="lvl-l0g0-4.svg"
   xmlns:inkscape="http://www.inkscape.org/namespaces/inkscape"
   xmlns:sodipodi="http://sodipodi.sourceforge.net/DTD/sodipodi-0.dtd"
   xmlns="http://www.w3.org/2000/svg"
   xmlns:svg="http://www.w3.org/2000/svg">
  <sodipodi:namedview
     id="namedview2828"
     pagecolor="#505050"
     bordercolor="#ffffff"
     borderopacity="1"
     inkscape:pageshadow="0"
     inkscape:pageopacity="0"
     inkscape:pagecheckerboard="1"
     inkscape:document-units="mm"
     showgrid="false"
     units="px"
     fit-margin-top="0"
     fit-margin-left="0"
     fit-margin-right="0"
     fit-margin-bottom="0"
     inkscape:zoom="14.603464"
     inkscape:cx="23.247909"
     inkscape:cy="-5.7862984"
     inkscape:window-width="1366"
     inkscape:window-height="745"
     inkscape:window-x="-8"
     inkscape:window-y="-8"
     inkscape:window-maximized="1"
     inkscape:current-layer="layer1" />
  <defs
     id="defs2823" />
  <g
     inkscape:label="Layer 1"
     inkscape:groupmode="layer"
     id="layer1"
     transform="translate(-86.772449,-140.27913)">
    <rect
       style="fill:#800080;stroke:#ffffff;stroke-width:0.169283;stroke-miterlimit:4;stroke-dasharray:none;stroke-opacity:1;paint-order:stroke markers fill"
       id="rect291-9"
       height="0.98929328"
       x="89.058701"
       y="140.36377"
       width="1.0065087" />
    <rect
       style="fill:#800080;stroke:#ffffff;stroke-width:0.172252;stroke-miterlimit:4;stroke-dasharray:none;stroke-opacity:1;paint-order:stroke markers fill"
       id="rect291-11-9"
       height="0.98632413"
       x="96.664719"
       y="140.36671"
       width="1.0452635" />
    <rect
       style="fill:#800080;fill-opacity:1;stroke:#ffffff;stroke-width:0.120185;stroke-miterlimit:4;stroke-dasharray:none;stroke-opacity:1;paint-order:stroke markers fill"
       id="rect291-4-7"
       height="1.0346493"
       x="90.15136"
       y="140.34308"
       width="1.0347054" />
    <rect
       style="fill:#800080;fill-opacity:1;stroke:#ffffff;stroke-width:0.120965;stroke-miterlimit:4;stroke-dasharray:none;stroke-opacity:1;paint-order:stroke markers fill"
       id="rect291-4-5-9"
       height="1.0309061"
       x="91.25106"
       y="140.34261"
       width="1.0520428" />
    <rect
       style="fill:#d3d3d3;fill-opacity:1;stroke:#ffffff;stroke-width:0.120965;stroke-miterlimit:4;stroke-dasharray:none;stroke-opacity:1;paint-order:stroke markers fill"
       id="rect291-4-0-9"
       height="1.0309061"
       x="92.303108"
       y="140.34261"
       width="1.0520428" />
    <rect
       style="fill:#800080;fill-opacity:1;stroke:#ffffff;stroke-width:0.120965;stroke-miterlimit:4;stroke-dasharray:none;stroke-opacity:1;paint-order:stroke markers fill"
       id="rect291-4-8-1"
       height="1.0309061"
       x="93.355148"
       y="140.34261"
       width="1.0520428" />
    <rect
       style="fill:#d3d3d3;fill-opacity:1;stroke:#ffffff;stroke-width:0.120965;stroke-miterlimit:4;stroke-dasharray:none;stroke-opacity:1;paint-order:stroke markers fill"
       id="rect291-4-1-6"
       height="1.0309061"
       x="94.407188"
       y="140.34261"
       width="1.0520428" />
    <rect
       style="fill:#d3d3d3;fill-opacity:1;stroke:#ffffff;stroke-width:0.120965;stroke-miterlimit:4;stroke-dasharray:none;stroke-opacity:1;paint-order:stroke markers fill"
       id="rect291-4-56-7"
       height="1.0309061"
       x="95.459229"
       y="140.34261"
       width="1.0520428" />
    <path
       style="fill:#e100e4;stroke:#ffffff;stroke-width:0.0393392;paint-order:stroke markers fill"
       d="M 37.388389,2.1912609 V 0.37662297 h 1.951592 1.951592 v 1.81463793 1.814638 h -1.951592 -1.951592 z"
       id="path3818"
       transform="matrix(0.26458333,0,0,0.26458333,86.772449,140.27913)" />
    <path
       style="fill:#e100e4;stroke:#ffffff;stroke-width:0.0393392;paint-order:stroke markers fill"
       d="M 24.925593,2.1570225 V 0.23966916 h 1.848876 1.848877 V 2.1570225 4.0743758 h -1.848877 -1.848876 z"
       id="path3857"
       transform="matrix(0.26458333,0,0,0.26458333,86.772449,140.27913)" />
    <path
       style="fill:#e100e4;stroke:#ffffff;stroke-width:0.0393392;paint-order:stroke markers fill"
       d="M 16.982272,2.1570225 V 0.23966916 h 1.814638 1.814638 V 2.1570225 4.0743758 H 18.79691 16.982272 Z"
       id="path3896"
       transform="matrix(0.26458333,0,0,0.26458333,86.772449,140.27913)" />
    <path
       style="fill:#e100e4;stroke:#ffffff;stroke-width:0.0393392;paint-order:stroke markers fill"
       d="M 12.805181,2.2254994 V 0.30814607 h 1.917353 1.917354 V 2.2254994 4.1428527 h -1.917354 -1.917353 z"
       id="path3935"
       transform="matrix(0.26458333,0,0,0.26458333,86.772449,140.27913)" />
    <path
       style="fill:#e100e4;stroke:#ffffff;stroke-width:0.0393392;paint-order:stroke markers fill"
       d="M 8.6965668,2.1912609 V 0.37662297 H 10.545443 12.39432 V 2.1912609 4.0058989 H 10.545443 8.6965668 Z"
       id="path3974"
       transform="matrix(0.26458333,0,0,0.26458333,86.772449,140.27913)" />
    <path
       style="fill:#e100e4;stroke:#ffffff;stroke-width:0.0393392;paint-order:stroke markers fill"
       d="M 8.6965668,2.1912609 V 0.37662297 H 10.545443 12.39432 V 2.1912609 4.0058989 H 10.545443 8.6965668 Z"
       id="path3230"
       transform="matrix(0.26458333,0,0,0.26458333,86.772449,140.27913)" />
    <path
       style="fill:#e100e4;stroke:#ffffff;stroke-width:0.0393392;paint-order:stroke markers fill"
       d="M 12.805181,2.2254994 V 0.30814607 h 1.917353 1.917354 V 2.2254994 4.1428527 h -1.917354 -1.917353 z"
       id="path3269"
       transform="matrix(0.26458333,0,0,0.26458333,86.772449,140.27913)" />
    <path
       style="fill:#e100e4;stroke:#ffffff;stroke-width:0.0393392;paint-order:stroke markers fill"
       d="M 16.982272,2.1570225 V 0.23966916 h 1.814638 1.814638 V 2.1570225 4.0743758 H 18.79691 16.982272 Z"
       id="path3308"
       transform="matrix(0.26458333,0,0,0.26458333,86.772449,140.27913)" />
    <path
       style="fill:#e100e4;stroke:#ffffff;stroke-width:0.0393392;paint-order:stroke markers fill"
       d="M 24.925593,2.1570225 V 0.23966916 h 1.848876 1.848877 V 2.1570225 4.0743758 h -1.848877 -1.848876 z"
       id="path3347"
       transform="matrix(0.26458333,0,0,0.26458333,86.772449,140.27913)" />
    <path
       style="fill:#e100e4;stroke:#ffffff;stroke-width:0.0393392;paint-order:stroke markers fill"
       d="M 37.388389,2.1912609 V 0.37662297 h 1.951592 1.951592 v 1.81463793 1.814638 h -1.951592 -1.951592 z"
       id="path3386"
       transform="matrix(0.26458333,0,0,0.26458333,86.772449,140.27913)" />
  </g>
</svg>
