<?xml version="1.0" encoding="UTF-8" standalone="no"?>
<!-- Generator: Adobe Illustrator 16.0.0, SVG Export Plug-In . SVG Version: 6.00 Build 0)  -->

<svg
   version="1.1"
   id="Capa_1"
   x="0px"
   y="0px"
   width="31.948872"
   height="31.661558"
   viewBox="0 0 31.948872 31.661559"
   xml:space="preserve"
   sodipodi:docname="statistics-bars-graphic-educational-symbol-svgrepo-com.svg"
   inkscape:version="1.1.1 (3bf5ae0d25, 2021-09-20)"
   xmlns:inkscape="http://www.inkscape.org/namespaces/inkscape"
   xmlns:sodipodi="http://sodipodi.sourceforge.net/DTD/sodipodi-0.dtd"
   xmlns="http://www.w3.org/2000/svg"
   xmlns:svg="http://www.w3.org/2000/svg"><defs
   id="defs45" /><sodipodi:namedview
   id="namedview43"
   pagecolor="#505050"
   bordercolor="#ffffff"
   borderopacity="1"
   inkscape:pageshadow="0"
   inkscape:pageopacity="0"
   inkscape:pagecheckerboard="1"
   showgrid="false"
   inkscape:zoom="3.7912934"
   inkscape:cx="10.418608"
   inkscape:cy="48.400369"
   inkscape:window-width="1366"
   inkscape:window-height="745"
   inkscape:window-x="-8"
   inkscape:window-y="-8"
   inkscape:window-maximized="1"
   inkscape:current-layer="Capa_1"
   fit-margin-top="0"
   fit-margin-left="0"
   fit-margin-right="0"
   fit-margin-bottom="0" />

<g
   id="g12"
   transform="translate(-11.957768,-0.10275744)">
</g>
<g
   id="g14"
   transform="translate(-11.957768,-0.10275744)">
</g>
<g
   id="g16"
   transform="translate(-11.957768,-0.10275744)">
</g>
<g
   id="g18"
   transform="translate(-11.957768,-0.10275744)">
</g>
<g
   id="g20"
   transform="translate(-11.957768,-0.10275744)">
</g>
<g
   id="g22"
   transform="translate(-11.957768,-0.10275744)">
</g>
<g
   id="g24"
   transform="translate(-11.957768,-0.10275744)">
</g>
<g
   id="g26"
   transform="translate(-11.957768,-0.10275744)">
</g>
<g
   id="g28"
   transform="translate(-11.957768,-0.10275744)">
</g>
<g
   id="g30"
   transform="translate(-11.957768,-0.10275744)">
</g>
<g
   id="g32"
   transform="translate(-11.957768,-0.10275744)">
</g>
<g
   id="g34"
   transform="translate(-11.957768,-0.10275744)">
</g>
<g
   id="g36"
   transform="translate(-11.957768,-0.10275744)">
</g>
<g
   id="g38"
   transform="translate(-11.957768,-0.10275744)">
</g>
<g
   id="g40"
   transform="translate(-11.957768,-0.10275744)">
</g>
<path
   style="opacity:0.996;fill:#800080;stroke:#000000;stroke-width:0.0751767;paint-order:stroke markers fill"
   d="m 0.05419106,25.805032 0.0165,-5.818938 0.132408,-0.366836 c 0.342821,-0.949789 1.13335404,-1.652386 2.05212504,-1.823857 0.422507,-0.07885 3.167589,-0.07357 3.54624,0.0068 1.013467,0.215174 1.879095,1.08025 2.088416,2.087085 0.04324,0.207981 0.0627,2.075682 0.0627,6.018119 v 5.716546 H 3.9951341 0.03769506 Z"
   id="path102" /><path
   style="opacity:0.996;fill:#800080;stroke:#000000;stroke-width:0.0751767;paint-order:stroke markers fill"
   d="m 12.050016,21.584614 c 0,-9.693272 0.0037,-10.051297 0.107817,-10.385773 0.303871,-0.976338 1.195171,-1.7353548 2.210147,-1.8821229 0.503333,-0.072783 2.720804,-0.071816 3.227448,0.00141 1.029284,0.1487599 1.923321,0.9263559 2.217338,1.9285499 0.08146,0.277661 0.09068,1.329697 0.09068,10.343197 V 31.62397 h -3.926714 -3.926716 z"
   id="path141" /><path
   style="opacity:0.996;fill:#800080;stroke:#000000;stroke-width:0.0751767;paint-order:stroke markers fill"
   d="m 24.000891,17.058086 c 0,-10.5749445 0.01754,-14.6485137 0.06404,-14.8674579 0.209141,-0.9849143 1.044707,-1.82725455 2.046889,-2.0634858 0.442227,-0.10424023 3.022148,-0.12321431 3.555287,-0.0261474 1.129505,0.2056454 2.034993,1.1707962 2.185312,2.3293024 0.03448,0.2657722 0.05596,5.8406518 0.05706,14.8099417 l 0.0018,14.383731 h -3.95517 -3.95517 z"
   id="path180" /></svg>
