<?xml version="1.0" encoding="UTF-8" standalone="no"?>
<!-- Generator: Adobe Illustrator 16.0.0, SVG Export Plug-In . SVG Version: 6.00 Build 0)  -->

<svg
   version="1.1"
   id="Capa_1"
   x="0px"
   y="0px"
   width="48.129463"
   height="47.878899"
   viewBox="0 0 48.129464 47.878898"
   xml:space="preserve"
   sodipodi:docname="white-three-horizontal-straight-lines-svgrepo-com.svg"
   inkscape:version="1.1.1 (3bf5ae0d25, 2021-09-20)"
   xmlns:inkscape="http://www.inkscape.org/namespaces/inkscape"
   xmlns:sodipodi="http://sodipodi.sourceforge.net/DTD/sodipodi-0.dtd"
   xmlns="http://www.w3.org/2000/svg"
   xmlns:svg="http://www.w3.org/2000/svg"><defs
   id="defs45" /><sodipodi:namedview
   id="namedview43"
   pagecolor="#505050"
   bordercolor="#ffffff"
   borderopacity="1"
   inkscape:pageshadow="0"
   inkscape:pageopacity="0"
   inkscape:pagecheckerboard="1"
   showgrid="false"
   inkscape:zoom="11.005692"
   inkscape:cx="30.756813"
   inkscape:cy="35.935951"
   inkscape:window-width="1366"
   inkscape:window-height="745"
   inkscape:window-x="-8"
   inkscape:window-y="-8"
   inkscape:window-maximized="1"
   inkscape:current-layer="Capa_1"
   fit-margin-top="0"
   fit-margin-left="0"
   fit-margin-right="0"
   fit-margin-bottom="0"
   units="px" />
<g
   id="g10"
   style="fill:#ffffff"
   transform="matrix(0.08641132,0,0,0.09388056,0,-2.2053482)">
	<g
   id="g8"
   style="fill:#ffffff">
		<path
   d="M 536.846,23.491 H 20.135 C 9.015,23.491 0,32.506 0,43.62 v 107.37 c 0,11.12 9.015,20.128 20.135,20.128 h 516.711 c 11.121,0 20.135,-9.015 20.135,-20.128 V 43.626 c -0.006,-11.12 -9.014,-20.135 -20.135,-20.135 z"
   id="path2"
   style="fill:#ffffff" />
		<path
   d="M 536.846,204.68 H 20.135 C 9.015,204.68 0,213.694 0,224.809 v 107.369 c 0,11.12 9.015,20.129 20.135,20.129 h 516.711 c 11.121,0 20.135,-9.015 20.135,-20.129 V 224.809 c -0.006,-11.121 -9.014,-20.129 -20.135,-20.129 z"
   id="path4"
   style="fill:#ffffff" />
		<path
   d="M 536.846,385.862 H 20.135 C 9.015,385.862 0,394.877 0,405.991 V 513.36 c 0,11.12 9.015,20.129 20.135,20.129 h 516.711 c 11.121,0 20.135,-9.015 20.135,-20.129 V 405.991 c -0.006,-11.114 -9.014,-20.129 -20.135,-20.129 z"
   id="path6"
   style="fill:#ffffff" />
	</g>
</g>
<g
   id="g12"
   transform="translate(-56.941058,-60.568664)">
</g>
<g
   id="g14"
   transform="translate(-56.941058,-60.568664)">
</g>
<g
   id="g16"
   transform="translate(-56.941058,-60.568664)">
</g>
<g
   id="g18"
   transform="translate(-56.941058,-60.568664)">
</g>
<g
   id="g20"
   transform="translate(-56.941058,-60.568664)">
</g>
<g
   id="g22"
   transform="translate(-56.941058,-60.568664)">
</g>
<g
   id="g24"
   transform="translate(-56.941058,-60.568664)">
</g>
<g
   id="g26"
   transform="translate(-56.941058,-60.568664)">
</g>
<g
   id="g28"
   transform="translate(-56.941058,-60.568664)">
</g>
<g
   id="g30"
   transform="translate(-56.941058,-60.568664)">
</g>
<g
   id="g32"
   transform="translate(-56.941058,-60.568664)">
</g>
<g
   id="g34"
   transform="translate(-56.941058,-60.568664)">
</g>
<g
   id="g36"
   transform="translate(-56.941058,-60.568664)">
</g>
<g
   id="g38"
   transform="translate(-56.941058,-60.568664)">
</g>
<g
   id="g40"
   transform="translate(-56.941058,-60.568664)">
</g>
</svg>
