<?xml version="1.0" encoding="UTF-8" standalone="no"?>
<!-- Generator: Adobe Illustrator 19.0.0, SVG Export Plug-In . SVG Version: 6.00 Build 0)  -->

<svg
   version="1.1"
   id="Layer_1"
   x="0px"
   y="0px"
   viewBox="0 0 48.000001 48"
   xml:space="preserve"
   sodipodi:docname="white-settings-svgrepo-com.svg"
   width="48"
   height="48"
   inkscape:version="1.1.1 (3bf5ae0d25, 2021-09-20)"
   xmlns:inkscape="http://www.inkscape.org/namespaces/inkscape"
   xmlns:sodipodi="http://sodipodi.sourceforge.net/DTD/sodipodi-0.dtd"
   xmlns="http://www.w3.org/2000/svg"
   xmlns:svg="http://www.w3.org/2000/svg"><defs
   id="defs41" /><sodipodi:namedview
   id="namedview39"
   pagecolor="#505050"
   bordercolor="#ffffff"
   borderopacity="1"
   inkscape:pageshadow="0"
   inkscape:pageopacity="0"
   inkscape:pagecheckerboard="1"
   showgrid="false"
   fit-margin-top="0"
   fit-margin-left="0"
   fit-margin-right="0"
   fit-margin-bottom="0"
   inkscape:zoom="3.5333251"
   inkscape:cx="46.273693"
   inkscape:cy="72.31149"
   inkscape:window-width="1366"
   inkscape:window-height="745"
   inkscape:window-x="-8"
   inkscape:window-y="-8"
   inkscape:window-maximized="1"
   inkscape:current-layer="Layer_1" />

<g
   id="g8"
   transform="translate(0.0696439,-6.7291689)">
</g>
<g
   id="g10"
   transform="translate(0.0696439,-6.7291689)">
</g>
<g
   id="g12"
   transform="translate(0.0696439,-6.7291689)">
</g>
<g
   id="g14"
   transform="translate(0.0696439,-6.7291689)">
</g>
<g
   id="g16"
   transform="translate(0.0696439,-6.7291689)">
</g>
<g
   id="g18"
   transform="translate(0.0696439,-6.7291689)">
</g>
<g
   id="g20"
   transform="translate(0.0696439,-6.7291689)">
</g>
<g
   id="g22"
   transform="translate(0.0696439,-6.7291689)">
</g>
<g
   id="g24"
   transform="translate(0.0696439,-6.7291689)">
</g>
<g
   id="g26"
   transform="translate(0.0696439,-6.7291689)">
</g>
<g
   id="g28"
   transform="translate(0.0696439,-6.7291689)">
</g>
<g
   id="g30"
   transform="translate(0.0696439,-6.7291689)">
</g>
<g
   id="g32"
   transform="translate(0.0696439,-6.7291689)">
</g>
<g
   id="g34"
   transform="translate(0.0696439,-6.7291689)">
</g>
<g
   id="g36"
   transform="translate(0.0696439,-6.7291689)">
</g>
<path
   style="opacity:0.996;fill:#ffffff;stroke:#000000;stroke-width:0.112163;paint-order:stroke markers fill"
   d="M 19.547661,47.576922 C 18.911153,47.208104 18.924103,47.29042 18.876573,43.310391 l -0.04247,-3.556489 -0.442277,-0.150133 C 18.148575,39.521199 17.637147,39.31271 17.25532,39.140464 l -0.694229,-0.313173 -2.431212,2.420232 c -1.337166,1.331128 -2.553546,2.481235 -2.703066,2.555792 -0.334288,0.166695 -0.626257,0.171915 -0.983823,0.01758 C 10.28966,43.75472 8.8549662,42.383104 7.1753119,40.696889 4.0278898,37.53717 4.1245873,37.65715 4.1793066,36.979577 4.1887266,36.862883 4.2676586,36.65283 4.354703,36.512795 4.441747,36.372759 5.5825104,35.191606 6.889733,33.888009 L 9.2664977,31.517831 9.1293079,31.257055 C 9.0538541,31.113629 8.8333699,30.595269 8.6393439,30.105148 L 8.2865684,29.214018 4.7259855,29.171586 C 1.4312594,29.132317 1.1456488,29.117201 0.90084284,28.969123 0.75533498,28.881111 0.56420726,28.690153 0.47611455,28.544777 0.32484997,28.295147 0.315946,28.044555 0.315946,24.036977 c 0,-3.966674 0.0101644,-4.260082 0.15582459,-4.498084 0.0857035,-0.140034 0.25771851,-0.33099 0.38225547,-0.424347 C 1.0699136,18.952709 1.248227,18.942831 4.6835237,18.902372 L 8.2865902,18.859932 8.639354,17.9688 C 8.8333751,17.478678 9.0538541,16.96032 9.1293079,16.816893 L 9.2664977,16.556122 6.8897292,14.185944 C 5.5825066,12.882348 4.4417429,11.701193 4.3546991,11.561158 4.2676551,11.421125 4.1887269,11.211072 4.1793028,11.094376 4.1245835,10.416805 4.027886,10.536784 7.1753081,7.3770657 8.8549624,5.6908508 10.289656,4.3192351 10.442987,4.2530557 c 0.357566,-0.1543301 0.649535,-0.149112 0.983823,0.017583 0.14952,0.07456 1.3659,1.2246665 2.703067,2.5557938 L 16.561088,9.246664 17.255317,8.9334913 C 17.637144,8.7612467 18.148572,8.5527589 18.391823,8.4701859 L 18.8341,8.3200535 18.876569,4.7635663 c 0.04764,-3.98951962 0.03415,-3.90526679 0.68348,-4.26987918 0.309362,-0.17371503 0.411181,-0.17773839 4.498205,-0.17773839 4.087023,0 4.188844,0.004022 4.498205,0.17773839 0.651581,0.36588072 0.637971,0.27895749 0.665737,4.25190218 l 0.02473,3.5385101 0.484945,0.1788737 c 0.26672,0.09838 0.783427,0.317658 1.148236,0.4872855 L 31.543403,9.25867 33.980628,6.8324353 c 1.340473,-1.3344286 2.559558,-2.487237 2.709078,-2.5617963 0.334287,-0.1666945 0.626257,-0.1719127 0.983823,-0.017583 0.15333,0.06618 1.588023,1.4377951 3.267679,3.12401 3.147421,3.159718 3.050724,3.039739 2.996004,3.71731 -0.0095,0.116696 -0.08835,0.326749 -0.175396,0.466782 -0.08705,0.140035 -1.227807,1.32119 -2.53503,2.624788 l -2.376769,2.370179 0.13719,0.260776 c 0.07546,0.143427 0.295938,0.661785 0.489965,1.151906 l 0.352775,0.891131 3.560582,0.04244 c 3.294727,0.03927 3.580339,0.05439 3.825144,0.20246 0.145507,0.08802 0.336635,0.27897 0.424727,0.424347 0.151266,0.24963 0.160169,0.500224 0.160169,4.507799 0,4.007578 -0.0089,4.25817 -0.160169,4.507799 -0.08809,0.145377 -0.27922,0.336334 -0.424727,0.424347 -0.244805,0.148078 -0.530417,0.163194 -3.825144,0.202463 l -3.560582,0.04244 -0.352775,0.891131 c -0.194027,0.490121 -0.414509,1.00848 -0.489965,1.151906 l -0.13719,0.260776 2.376769,2.37018 c 1.307223,1.303597 2.447985,2.484751 2.53503,2.624786 0.08705,0.140034 0.165972,0.350087 0.175396,0.466782 0.05472,0.677573 0.151417,0.557593 -2.996004,3.717311 -1.679656,1.686216 -3.114349,3.057831 -3.267679,3.124011 -0.357566,0.154329 -0.649536,0.149109 -0.983823,-0.01758 -0.14952,-0.07456 -1.368605,-1.227364 -2.709078,-2.561794 l -2.437225,-2.426233 -0.663293,0.30841 c -0.364809,0.169625 -0.881516,0.388904 -1.148236,0.487286 l -0.484945,0.178872 -0.02473,3.538512 c -0.02777,3.972943 -0.01416,3.886021 -0.665737,4.251901 -0.309535,0.173812 -0.409155,0.177697 -4.509772,0.17579 -4.09589,-0.0019 -4.200344,-0.0061 -4.49903,-0.179137 z m 6.199162,-17.474614 c 2.021673,-0.559731 3.602366,-2.066883 4.314039,-4.113331 0.217492,-0.625406 0.236115,-0.779363 0.236115,-1.952 0,-1.172635 -0.01862,-1.326593 -0.236115,-1.951999 -0.578308,-1.662955 -1.684195,-2.926103 -3.258068,-3.721388 -1.599113,-0.808035 -3.880209,-0.808705 -5.489073,-0.0016 -1.55003,0.777583 -2.684654,2.074119 -3.258068,3.722995 -0.217491,0.625407 -0.236115,0.779365 -0.236115,1.951999 0,1.172638 0.01862,1.326594 0.236115,1.952001 1.12509,3.235248 4.446613,5.011638 7.69117,4.113331 z"
   id="path98" /></svg>
