<?xml version="1.0" encoding="UTF-8" standalone="no"?>
<!-- Generator: Adobe Illustrator 16.0.0, SVG Export Plug-In . SVG Version: 6.00 Build 0)  -->

<svg
   version="1.1"
   id="Capa_1"
   x="0px"
   y="0px"
   width="48"
   height="48"
   viewBox="0 0 48.000001 48"
   xml:space="preserve"
   sodipodi:docname="white-statistics-bars-.svg"
   inkscape:version="1.1.1 (3bf5ae0d25, 2021-09-20)"
   xmlns:inkscape="http://www.inkscape.org/namespaces/inkscape"
   xmlns:sodipodi="http://sodipodi.sourceforge.net/DTD/sodipodi-0.dtd"
   xmlns="http://www.w3.org/2000/svg"
   xmlns:svg="http://www.w3.org/2000/svg"><defs
   id="defs45" /><sodipodi:namedview
   id="namedview43"
   pagecolor="#505050"
   bordercolor="#ffffff"
   borderopacity="1"
   inkscape:pageshadow="0"
   inkscape:pageopacity="0"
   inkscape:pagecheckerboard="1"
   showgrid="false"
   fit-margin-top="0"
   fit-margin-left="0"
   fit-margin-right="0"
   fit-margin-bottom="0"
   inkscape:zoom="5.3918298"
   inkscape:cx="44.975455"
   inkscape:cy="39.967879"
   inkscape:window-width="1366"
   inkscape:window-height="745"
   inkscape:window-x="-8"
   inkscape:window-y="-8"
   inkscape:window-maximized="1"
   inkscape:current-layer="Capa_1"
   units="px"
   width="46.842529px" />
















<g
   id="g963"
   transform="matrix(0.11611131,0,0,0.11900498,1.0664399e-4,0.50231188)"><g
     id="g10"
     transform="matrix(12.85534,0,0,12.620571,0.5383971,-1.2924811)"
     style="fill:#ffffff">
	<g
   id="g8"
   style="fill:#ffffff">
		<path
   d="M 0,31.741 H 7.942 V 20.543 c 0,-1.506 -1.221,-2.728 -2.728,-2.728 H 2.727 C 1.221,17.816 0,19.038 0,20.543 Z"
   id="path2"
   style="fill:#ffffff" />
		<path
   d="m 11.966,31.741 h 7.942 V 12.085 c 0,-1.506 -1.221,-2.728 -2.727,-2.728 h -2.49 c -1.507,0 -2.728,1.221 -2.728,2.728 z"
   id="path4"
   style="fill:#ffffff" />
		<path
   d="m 26.656,0.127 c -1.506,0 -2.729,1.221 -2.729,2.728 v 28.887 h 7.942 V 2.854 c 0,-1.506 -1.223,-2.728 -2.729,-2.728 z"
   id="path6"
   style="fill:#ffffff" />
	</g>
</g><g
     id="g12"
     transform="matrix(12.85534,0,0,12.620571,0.5383971,-1.2924811)"
     style="fill:#ffffff">
</g><g
     id="g14"
     transform="matrix(12.85534,0,0,12.620571,0.5383971,-1.2924811)"
     style="fill:#ffffff">
</g><g
     id="g16"
     transform="matrix(12.85534,0,0,12.620571,0.5383971,-1.2924811)"
     style="fill:#ffffff">
</g><g
     id="g18"
     transform="matrix(12.85534,0,0,12.620571,0.5383971,-1.2924811)"
     style="fill:#ffffff">
</g><g
     id="g20"
     transform="matrix(12.85534,0,0,12.620571,0.5383971,-1.2924811)"
     style="fill:#ffffff">
</g><g
     id="g22"
     transform="matrix(12.85534,0,0,12.620571,0.5383971,-1.2924811)"
     style="fill:#ffffff">
</g><g
     id="g24"
     transform="matrix(12.85534,0,0,12.620571,0.5383971,-1.2924811)"
     style="fill:#ffffff">
</g><g
     id="g26"
     transform="matrix(12.85534,0,0,12.620571,0.5383971,-1.2924811)"
     style="fill:#ffffff">
</g><g
     id="g28"
     transform="matrix(12.85534,0,0,12.620571,0.5383971,-1.2924811)"
     style="fill:#ffffff">
</g><g
     id="g30"
     transform="matrix(12.85534,0,0,12.620571,0.5383971,-1.2924811)"
     style="fill:#ffffff">
</g><g
     id="g32"
     transform="matrix(12.85534,0,0,12.620571,0.5383971,-1.2924811)"
     style="fill:#ffffff">
</g><g
     id="g34"
     transform="matrix(12.85534,0,0,12.620571,0.5383971,-1.2924811)"
     style="fill:#ffffff">
</g><g
     id="g36"
     transform="matrix(12.85534,0,0,12.620571,0.5383971,-1.2924811)"
     style="fill:#ffffff">
</g><g
     id="g38"
     transform="matrix(12.85534,0,0,12.620571,0.5383971,-1.2924811)"
     style="fill:#ffffff">
</g><g
     id="g40"
     transform="matrix(12.85534,0,0,12.620571,0.5383971,-1.2924811)"
     style="fill:#ffffff">
</g><path
     style="opacity:0.996;fill:#ffffff;stroke:#000000;stroke-width:0.957557;paint-order:stroke markers fill"
     d="m 0.69213413,325.6786 0.2121131,-73.43832 1.70214997,-4.62968 c 4.4070937,-11.98687 14.5696518,-20.85404 26.3807788,-23.01811 5.43147,-0.99513 40.720434,-0.92851 45.588109,0.0855 13.028463,2.71564 24.156399,13.63337 26.847295,26.3402 0.55585,2.62485 0.80599,26.19631 0.80599,75.95211 v 72.14603 H 51.354389 0.48016246 Z"
     id="path102" /><path
     style="opacity:0.996;fill:#ffffff;stroke:#000000;stroke-width:0.957557;paint-order:stroke markers fill"
     d="m 154.90255,272.41452 c 0,-122.33462 0.0478,-126.8531 1.38601,-131.07438 3.90636,-12.32194 15.36433,-21.90118 28.4122,-23.75346 6.47051,-0.91856 34.97686,-0.90639 41.48995,0.0176 13.23179,1.87743 24.72493,11.69113 28.50462,24.3394 1.0472,3.50423 1.16573,16.78153 1.16573,130.53706 v 126.63613 h -50.47924 -50.47927 z"
     id="path141" /><path
     style="opacity:0.996;fill:#ffffff;stroke:#000000;stroke-width:0.957557;paint-order:stroke markers fill"
     d="m 308.53511,215.28716 c 0,-133.461838 0.22547,-184.872606 0.82327,-187.635806 2.68857,-12.430181 13.43006,-23.0609959 26.31344,-26.0423691 5.68501,-1.31557128 38.85075,-1.55503503 45.70444,-0.3299954 14.52017,2.5953624 26.16055,14.7761155 28.09293,29.3971245 0.44325,3.354198 0.71941,73.712366 0.73351,186.909916 l 0.0235,181.53087 h -50.84497 -50.84505 z"
     id="path180" /></g></svg>
