<?xml version="1.0" encoding="UTF-8" standalone="no"?>
<!-- Generator: Adobe Illustrator 16.0.0, SVG Export Plug-In . SVG Version: 6.00 Build 0)  -->

<svg
   version="1.1"
   id="Capa_1"
   x="0px"
   y="0px"
   width="48"
   height="48"
   viewBox="0 0 48 48"
   xml:space="preserve"
   sodipodi:docname="white-question-mark-svgrepo-com.svg"
   inkscape:version="1.1.1 (3bf5ae0d25, 2021-09-20)"
   xmlns:inkscape="http://www.inkscape.org/namespaces/inkscape"
   xmlns:sodipodi="http://sodipodi.sourceforge.net/DTD/sodipodi-0.dtd"
   xmlns="http://www.w3.org/2000/svg"
   xmlns:svg="http://www.w3.org/2000/svg"><defs
   id="defs39" /><sodipodi:namedview
   id="namedview37"
   pagecolor="#505050"
   bordercolor="#ffffff"
   borderopacity="1"
   inkscape:pageshadow="0"
   inkscape:pageopacity="0"
   inkscape:pagecheckerboard="1"
   showgrid="false"
   fit-margin-top="0"
   fit-margin-left="0"
   fit-margin-right="0"
   fit-margin-bottom="0"
   inkscape:zoom="8.3298834"
   inkscape:cx="32.473444"
   inkscape:cy="27.431356"
   inkscape:window-width="1366"
   inkscape:window-height="745"
   inkscape:window-x="-8"
   inkscape:window-y="-8"
   inkscape:window-maximized="1"
   inkscape:current-layer="Capa_1" />
<g
   id="g4"
   transform="matrix(0.11503136,0,0,0.11439906,-9.7981846e-6,0.36011075)"
   style="fill:#ffffff">
	<path
   d="m 356.004,61.156 c -81.37,-81.47 -213.377,-81.551 -294.848,-0.182 -81.47,81.371 -81.552,213.379 -0.181,294.85 81.369,81.47 213.378,81.551 294.849,0.181 81.469,-81.369 81.551,-213.379 0.18,-294.849 z m -147.45,273.638 c -11.028,0 -19.968,-8.939 -19.968,-19.968 0,-11.029 8.939,-19.969 19.968,-19.969 11.028,0 19.968,8.939 19.968,19.969 -0.001,11.028 -8.94,19.968 -19.968,19.968 z m 32.464,-120.228 c -11.406,6.668 -12.381,14.871 -12.43,38.508 -0.003,1.563 -0.008,3.14 -0.017,4.726 -0.071,11.172 -9.147,20.18 -20.304,20.18 -0.044,0 -0.088,0 -0.131,0 -11.215,-0.071 -20.248,-9.22 -20.178,-20.436 0.01,-1.528 0.013,-3.047 0.016,-4.552 0.05,-24.293 0.111,-54.524 32.547,-73.484 26.026,-15.214 29.306,-25.208 26.254,-38.322 -3.586,-15.404 -17.653,-19.396 -28.63,-18.141 -3.686,0.423 -22.069,3.456 -22.069,21.642 0,11.213 -9.092,20.306 -20.307,20.306 -11.215,0 -20.306,-9.093 -20.306,-20.306 0,-32.574 23.87,-58.065 58.048,-61.989 35.2,-4.038 65.125,16.226 72.816,49.282 11.497,49.381 -29.772,73.505 -45.309,82.586 z"
   id="path2"
   style="fill:#ffffff" />
</g>
<g
   id="g6"
   transform="translate(-8.5178376e-5,-3.3517789e-4)">
</g>
<g
   id="g8"
   transform="translate(-8.5178376e-5,-3.3517789e-4)">
</g>
<g
   id="g10"
   transform="translate(-8.5178376e-5,-3.3517789e-4)">
</g>
<g
   id="g12"
   transform="translate(-8.5178376e-5,-3.3517789e-4)">
</g>
<g
   id="g14"
   transform="translate(-8.5178376e-5,-3.3517789e-4)">
</g>
<g
   id="g16"
   transform="translate(-8.5178376e-5,-3.3517789e-4)">
</g>
<g
   id="g18"
   transform="translate(-8.5178376e-5,-3.3517789e-4)">
</g>
<g
   id="g20"
   transform="translate(-8.5178376e-5,-3.3517789e-4)">
</g>
<g
   id="g22"
   transform="translate(-8.5178376e-5,-3.3517789e-4)">
</g>
<g
   id="g24"
   transform="translate(-8.5178376e-5,-3.3517789e-4)">
</g>
<g
   id="g26"
   transform="translate(-8.5178376e-5,-3.3517789e-4)">
</g>
<g
   id="g28"
   transform="translate(-8.5178376e-5,-3.3517789e-4)">
</g>
<g
   id="g30"
   transform="translate(-8.5178376e-5,-3.3517789e-4)">
</g>
<g
   id="g32"
   transform="translate(-8.5178376e-5,-3.3517789e-4)">
</g>
<g
   id="g34"
   transform="translate(-8.5178376e-5,-3.3517789e-4)">
</g>
</svg>
