<?xml version="1.0" encoding="UTF-8" standalone="no"?>
<!-- Generator: Adobe Illustrator 19.0.0, SVG Export Plug-In . SVG Version: 6.00 Build 0)  -->

<svg
   version="1.1"
   id="Layer_1"
   x="0px"
   y="0px"
   viewBox="0 0 401.44679 411.04682"
   xml:space="preserve"
   sodipodi:docname="white-settings-svgrepo-com.svg"
   width="401.44678"
   height="411.04681"
   inkscape:version="1.1.1 (3bf5ae0d25, 2021-09-20)"
   xmlns:inkscape="http://www.inkscape.org/namespaces/inkscape"
   xmlns:sodipodi="http://sodipodi.sourceforge.net/DTD/sodipodi-0.dtd"
   xmlns="http://www.w3.org/2000/svg"
   xmlns:svg="http://www.w3.org/2000/svg"><defs
   id="defs41" /><sodipodi:namedview
   id="namedview39"
   pagecolor="#505050"
   bordercolor="#ffffff"
   borderopacity="1"
   inkscape:pageshadow="0"
   inkscape:pageopacity="0"
   inkscape:pagecheckerboard="1"
   showgrid="false"
   fit-margin-top="0"
   fit-margin-left="0"
   fit-margin-right="0"
   fit-margin-bottom="0"
   inkscape:zoom="0.37884603"
   inkscape:cx="-172.89346"
   inkscape:cy="122.74116"
   inkscape:window-width="1366"
   inkscape:window-height="745"
   inkscape:window-x="-8"
   inkscape:window-y="-8"
   inkscape:window-maximized="1"
   inkscape:current-layer="Layer_1" />

<g
   id="g8"
   transform="translate(0.0696439,-6.7291689)">
</g>
<g
   id="g10"
   transform="translate(0.0696439,-6.7291689)">
</g>
<g
   id="g12"
   transform="translate(0.0696439,-6.7291689)">
</g>
<g
   id="g14"
   transform="translate(0.0696439,-6.7291689)">
</g>
<g
   id="g16"
   transform="translate(0.0696439,-6.7291689)">
</g>
<g
   id="g18"
   transform="translate(0.0696439,-6.7291689)">
</g>
<g
   id="g20"
   transform="translate(0.0696439,-6.7291689)">
</g>
<g
   id="g22"
   transform="translate(0.0696439,-6.7291689)">
</g>
<g
   id="g24"
   transform="translate(0.0696439,-6.7291689)">
</g>
<g
   id="g26"
   transform="translate(0.0696439,-6.7291689)">
</g>
<g
   id="g28"
   transform="translate(0.0696439,-6.7291689)">
</g>
<g
   id="g30"
   transform="translate(0.0696439,-6.7291689)">
</g>
<g
   id="g32"
   transform="translate(0.0696439,-6.7291689)">
</g>
<g
   id="g34"
   transform="translate(0.0696439,-6.7291689)">
</g>
<g
   id="g36"
   transform="translate(0.0696439,-6.7291689)">
</g>
<path
   style="opacity:0.996;fill:#ffffff;stroke:#000000;stroke-width:0.957711;paint-order:stroke markers fill"
   d="m 162.68066,409.01715 c -5.36835,-3.18818 -5.25913,-2.47661 -5.66001,-36.8812 l -0.35822,-30.74338 -3.7302,-1.29779 c -2.0516,-0.71378 -6.36502,-2.51601 -9.58538,-4.00495 l -5.85518,-2.70716 -20.50503,20.92122 c -11.27777,11.50668 -21.536813,21.44855 -22.797878,22.09305 -2.819415,1.44096 -5.281905,1.48608 -8.297638,0.15201 -1.293207,-0.57208 -13.393529,-12.42874 -27.559866,-27.0049 -26.545607,-27.31357 -25.730053,-26.27643 -25.268545,-32.13357 0.07948,-1.00875 0.74517,-2.82451 1.479306,-4.03501 0.734134,-1.21051 10.355425,-11.42076 21.380644,-22.68945 l 20.045854,-20.48856 -1.15707,-2.25423 c -0.636383,-1.23982 -2.495964,-5.72067 -4.132395,-9.95743 l -2.975337,-7.7032 -30.030237,-0.3668 C 9.8854972,249.57635 7.4766348,249.44568 5.4119217,248.16565 c -1.2272248,-0.76081 -2.8392111,-2.4115 -3.582192,-3.66818 -1.27577741,-2.15787 -1.35087421,-4.32407 -1.35087421,-38.9668 0,-34.28914 0.0857274,-36.82545 1.31423691,-38.88281 0.7228304,-1.21049 2.1736183,-2.86118 3.2239729,-3.66818 1.8208123,-1.39897 3.3247219,-1.48436 32.2982857,-1.8341 l 30.388549,-0.36681 2.975237,-7.70321 c 1.636389,-4.23676 3.495927,-8.7176 4.13231,-9.95743 l 1.15707,-2.25423 -20.045854,-20.48854 C 44.897444,109.10665 35.276153,98.896391 34.542019,97.685881 c -0.734136,-1.21048 -1.399823,-3.02625 -1.479306,-4.035 -0.461508,-5.857133 -1.277062,-4.819999 25.268545,-32.133566 14.166337,-14.57616 26.266659,-26.432823 27.559866,-27.004899 3.015733,-1.334076 5.478223,-1.288969 8.297638,0.15199 1.261065,0.644513 11.520108,10.586391 22.797878,22.093061 l 20.50503,20.921222 5.85518,-2.707158 c 3.22036,-1.48894 7.53378,-3.291173 9.58538,-4.004957 l 3.7302,-1.297789 0.35822,-30.743365 c 0.40183,-34.4866259 0.28808,-33.7583189 5.76452,-36.9101395 2.60919,-1.50164581 3.46794,-1.53642501 37.93822,-1.53642501 34.47028,0 35.32904,0.034772 37.93822,1.53642501 5.49548,3.1627846 5.3807,2.4113936 5.61488,36.7547405 l 0.20857,30.587963 4.09006,1.546238 c 2.24953,0.850431 6.60748,2.745935 9.68431,4.212248 l 5.59427,2.666001 20.55575,-20.973113 c 11.30565,-11.535211 21.58751,-21.500439 22.84857,-22.144952 2.81941,-1.440959 5.28191,-1.486066 8.29764,-0.15199 1.2932,0.572076 13.39352,12.428739 27.55987,27.004899 26.5456,27.313567 25.73004,26.276433 25.26854,32.133566 -0.0795,1.00875 -0.74518,2.82452 -1.47931,4.035 -0.73414,1.21051 -10.35542,11.420769 -21.38064,22.689479 l -20.04586,20.48854 1.15707,2.25423 c 0.6364,1.23983 2.49597,5.72067 4.1324,9.95743 l 2.97533,7.70321 30.03024,0.36681 c 27.78798,0.33943 30.19686,0.47011 32.26157,1.75012 1.22721,0.76082 2.8392,2.4115 3.58218,3.66819 1.27578,2.15787 1.35087,4.32409 1.35087,38.96678 0,34.64273 -0.0752,36.80893 -1.35087,38.9668 -0.74298,1.25668 -2.35497,2.90737 -3.58218,3.66818 -2.06471,1.28003 -4.47359,1.4107 -32.26157,1.75015 l -30.03024,0.3668 -2.97533,7.7032 c -1.63643,4.23676 -3.496,8.71761 -4.1324,9.95743 l -1.15707,2.25423 20.04586,20.48856 c 11.02522,11.26869 20.6465,21.47894 21.38064,22.68945 0.73413,1.2105 1.39982,3.02626 1.47931,4.03501 0.4615,5.85714 1.27706,4.82 -25.26854,32.13357 -14.16635,14.57616 -26.26667,26.43282 -27.55987,27.0049 -3.01573,1.33407 -5.47823,1.28895 -8.29764,-0.15201 -1.26106,-0.6445 -11.54292,-10.60972 -22.84857,-22.14494 l -20.55575,-20.9731 -5.59427,2.666 c -3.07683,1.46629 -7.43478,3.3618 -9.68431,4.21225 l -4.09006,1.54622 -0.20857,30.58798 c -0.23418,34.34334 -0.1194,33.59195 -5.61488,36.75473 -2.61064,1.50248 -3.45084,1.53606 -38.03577,1.51958 -34.54506,-0.0165 -35.42604,-0.0523 -37.94518,-1.54851 z m 52.28422,-151.0559 c 17.05095,-4.83849 30.38264,-17.86678 36.38495,-35.55689 1.83435,-5.4062 1.99142,-6.73706 1.99142,-16.87369 0,-10.13661 -0.15707,-11.46747 -1.99142,-16.87367 -4.8775,-14.37509 -14.20464,-25.29413 -27.4788,-32.16882 -13.48705,-6.9849 -32.72599,-6.99069 -46.29528,-0.0139 -13.07308,6.72166 -22.64258,17.92932 -27.4788,32.18271 -1.83434,5.40621 -1.99141,6.73706 -1.99141,16.87367 0,10.13664 0.15707,11.46749 1.99141,16.87369 9.4891,27.96648 37.50308,43.32214 64.86793,35.55689 z"
   id="path98" /></svg>
